# xmcd
#
# Track frame offsets: 
#        150
#        20800
#        38205
#        56940
#        70326
#        80741
#        99288
#        112095
#        124448
#        145691
#        168654
#        188093
#
# Disc length: 2711 seconds
#
# Revision: 0
# Processed by: cddbd v1.5.2PL0 Copyright (c) Steve Scherf et al.
# Submitted via: ExactAudioCopy v0.99pb4
#
DISCID=b40a950c
DTITLE=Mick Abrahams' Blodwyn Pig  - Times Have Changed
DYEAR=1993
DGENRE=Blues/Rock
TTITLE0=Lies
TTITLE1=The Night Is Gone
TTITLE2=Recession Blues
TTITLE3=Latin Girl
TTITLE4=Gnatz
TTITLE5=Funny Money
TTITLE6=Witness (To A Crime Of Love)
TTITLE7=Aby's Lean
TTITLE8=The Victim
TTITLE9=Love Won't Let You Down
TTITLE10=Dead Man's Hill
TTITLE11=Maggie Rose
EXTD=
EXTT0=
EXTT1=
EXTT2=
EXTT3=
EXTT4=
EXTT5=
EXTT6=
EXTT7=
EXTT8=
EXTT9=
EXTT10=
EXTT11=
PLAYORDER=
